<svg height="100%" width="100%" id="svg" viewBox="0 0 1440 600" xmlns="http://www.w3.org/2000/svg" class="transition duration-300 ease-in-out delay-150"><defs><linearGradient id="gradient"><stop offset="5%" stop-color="#ff4d4d88"></stop><stop offset="95%" stop-color="#f9cb2888"></stop></linearGradient></defs><path d="M 0,600 C 0,600 0,200 0,200 C 86.66985645933013,207.6937799043062 173.33971291866027,215.38755980861245 266,192 C 358.66028708133973,168.61244019138755 457.3110047846891,114.14354066985643 556,130 C 654.6889952153109,145.85645933014357 753.4162679425837,232.03827751196172 864,252 C 974.5837320574163,271.9617224880383 1097.0239234449762,225.70334928229664 1195,206 C 1292.9760765550238,186.29665071770336 1366.4880382775118,193.14832535885168 1440,200 C 1440,200 1440,600 1440,600 Z" stroke="none" stroke-width="0" fill="url(#gradient)" class="transition-all duration-300 ease-in-out delay-150" transform="rotate(-180 720 300)"></path><defs><linearGradient id="gradient"><stop offset="5%" stop-color="#ff4d4dff"></stop><stop offset="95%" stop-color="#f9cb28ff"></stop></linearGradient></defs><path d="M 0,600 C 0,600 0,400 0,400 C 109.3397129186603,368.41148325358853 218.6794258373206,336.82296650717706 316,334 C 413.3205741626794,331.17703349282294 498.62200956937806,357.1196172248804 590,372 C 681.3779904306219,386.8803827751196 778.8325358851673,390.69856459330146 873,403 C 967.1674641148327,415.30143540669854 1058.0478468899523,436.0861244019139 1152,437 C 1245.9521531100477,437.9138755980861 1342.9760765550238,418.9569377990431 1440,400 C 1440,400 1440,600 1440,600 Z" stroke="none" stroke-width="0" fill="url(#gradient)" class="transition-all duration-300 ease-in-out delay-150" transform="rotate(-180 720 300)"></path></svg>